<svg id="_39d0ca31697da0067cc6fc38e42d849d" data-name="39d0ca31697da0067cc6fc38e42d849d" xmlns="http://www.w3.org/2000/svg" width="24" height="24.001" viewBox="0 0 24 24.001">
  <g id="_39d0ca31697da0067cc6fc38e42d849d-2" data-name="39d0ca31697da0067cc6fc38e42d849d" transform="translate(-9.972 -9.954)" style="isolation: isolate">
    <path id="Path_1" data-name="Path 1" d="M33.828,12.705A23.574,23.574,0,0,0,30.98,9.98c-.98-.2-1.45.855-2.123,1.349,1.136,1.32,2.461,2.486,3.683,3.735C33.094,14.4,34.406,13.729,33.828,12.705Zm-.607,4.986c-.776.779-1.58,1.538-2.329,2.346-.02,3.122.007,6.245-.01,9.37a2.315,2.315,0,0,1-2.175,2.211q-7.1.029-14.214,0a2.367,2.367,0,0,1-2.2-2.515q0-6.781,0-13.555a2.368,2.368,0,0,1,2.194-2.5c3.137-.042,6.277,0,9.411-.022.813-.735,1.565-1.54,2.344-2.314-4.178,0-8.351-.022-12.529.012a3.9,3.9,0,0,0-3.732,3.7c0,5.27-.02,10.538.01,15.808a3.9,3.9,0,0,0,3.487,3.722H29.891a3.969,3.969,0,0,0,3.311-3.7C33.255,26.072,33.214,21.879,33.221,17.691Zm-1.251-2.05q-1.844-1.855-3.713-3.691c-2.723,2.7-5.451,5.4-8.16,8.118q1.84,1.851,3.705,3.681Q27.891,19.7,31.97,15.642Zm-13.886,10.1c1.668-.453,2.557-.74,4.224-1.188.446-.142.742-.228.972-.318-1.18-1.124-2.537-2.51-3.715-3.644C19.069,22.308,18.579,24.024,18.084,25.741Z" transform="translate(0 0)"/>
  </g>
</svg>
