<svg xmlns="http://www.w3.org/2000/svg" width="24.051" height="24.06" viewBox="0 0 24.051 24.06">
  <g id="d1715980f60fbf0b9c75d10f53f7c080" transform="translate(-10 -9.8)" style="isolation: isolate">
    <path id="Path_2" data-name="Path 2" d="M128.269,284.554a2.85,2.85,0,0,1-2.869-2.847V267.661a.864.864,0,0,1,1.728,0v14.046a1.121,1.121,0,0,0,1.141,1.117h12.62a1.131,1.131,0,0,0,1.178-1.117V267.661a.847.847,0,1,1,1.693,0v14.046a2.853,2.853,0,0,1-2.869,2.847Z" transform="translate(-112.568 -250.693)"/>
    <path id="Path_3" data-name="Path 3" d="M33.187,13.221H26.628V10.659a.871.871,0,0,0-.874-.859H18.3a.865.865,0,0,0-.866.859v2.562H10.861a.864.864,0,0,0,0,1.728H33.189a.864.864,0,0,0,0-1.728Zm-8.289,0h-5.74v-1.73H24.9v1.73Z"/>
    <path id="Path_4" data-name="Path 4" d="M361.028,369.76v-8.6a.864.864,0,0,0-1.728,0v8.6a.864.864,0,0,0,1.728,0Z" transform="translate(-340.729 -341.899)"/>
    <path id="Path_5" data-name="Path 5" d="M572.293,369.76v-8.6a.847.847,0,1,0-1.693,0v8.6a.847.847,0,1,0,1.693,0Z" transform="translate(-546.843 -341.899)"/>
  </g>
</svg>
